<?xml version="1.0" encoding="UTF-8"?>
<svg id="Capa_1" data-name="Capa 1" xmlns="http://www.w3.org/2000/svg" version="1.1" viewBox="0 0 181.4 66.4">
  <defs>
    <style>
      .cls-1 {
        fill: #a0d1ae;
      }

      .cls-1, .cls-2 {
        stroke-width: 0px;
      }

      .cls-2 {
        fill: #fff;
      }

      .cls-3 {
        display: none;
      }
    </style>
  </defs>
  <g class="cls-3">
    <g>
      <path class="cls-2" d="M51.3,25.4c0-1.7-.4-3.3-1.2-4.7-.8-1.4-2-2.5-3.6-3.3-1.6-.8-3.5-1.2-5.8-1.2-3.2,0-6.2.9-8.9,2.6-2.7,1.7-4.8,4.3-6.4,7.7-1.6,3.4-2.4,7.6-2.4,12.6s.4,4.8,1.1,6.7c.8,1.8,1.8,3.1,3,4,1.3.9,2.6,1.3,4.1,1.3,2.7,0,4.4-1.7,5-5.1l1.6-8.8c2.8-.2,5.3-.8,7.3-1.9,2-1.1,3.6-2.5,4.7-4.2,1.1-1.7,1.6-3.6,1.6-5.7ZM38.4,33.5l1.2-7.1c0-.2,0-.6,0-1,0-.7-.2-1.1-.5-1.4-.4-.3-.9-.5-1.7-.5s-1.3.2-1.8.5c-.5.4-.9.9-1,1.8-.6,3.2-1,5.7-1.4,7.6-.3,0-.8,0-1.4-.2-.1,0-.3,0-.5,0-.5,0-1,.2-1.3.5-.3.3-.5.7-.5,1.3s.1.9.3,1.3c.2.3.7.6,1.4.7-.1,0,.3,0,1.2.2l-1.2,6.9c-.3,1.7-.8,2.5-1.4,2.5s-.9-.3-1.4-1c-.5-.6-.9-1.6-1.2-2.7-.3-1.2-.5-2.5-.5-4,0-3.6.5-6.8,1.5-9.6,1-2.8,2.4-5,4.3-6.6,1.9-1.6,4.1-2.4,6.6-2.4s3.9.5,4.9,1.5c1.1,1,1.6,2.3,1.6,3.9,0,4.6-2.5,7.2-7.5,7.8Z"/>
      <path class="cls-2" d="M123.9,27.7c1,0,1.9-.3,2.5-.9.6-.6,1-1.3,1-2.3s-.3-1.4-.8-1.9c-.6-.4-1.3-.7-2.2-.7s-1.8.3-2.5.9c-.7.6-1,1.3-1,2.1s.3,1.5.8,2c.5.5,1.3.7,2.3.7Z"/>
      <path class="cls-2" d="M157.5,40.5c-.2-.3-.4-.4-.7-.4s-.7.2-1,.5c-.9,1.1-1.6,1.9-2.2,2.3-.6.5-1.5.7-2.5.7s-2.4-.6-3-1.7c2.9-.7,5-1.7,6.2-2.9,1.2-1.2,1.8-2.6,1.8-4.3s-.4-2.6-1.3-3.4c-.9-.8-2-1.3-3.4-1.3s-3,.4-4.3,1.3c-1.3.9-2.2,2-2.9,3.5-.7,1.4-1.1,3-1.1,4.7s0,1,.1,1.5c-1,1.1-2,1.8-2.8,2.1,0-.4,0-.8,0-1,0-.9-.2-1.6-.6-2.4-.4-.7-1-1.6-1.8-2.6-.5-.7-.9-1.2-1.2-1.6-.3-.4-.4-.8-.4-1.2,0-.6.2-1.4.7-2.2.2-.3.3-.6.4-1,0-.3.1-.5.1-.7,0-.3-.1-.5-.4-.6-.3-.1-.7-.2-1.4-.2-1.5,0-2.4.5-2.9,1.6-.5,1.3-1.1,2.5-1.6,3.7-.6,1.2-1,2.1-1.5,2.8-.7,1-1.6,2.4-2.9,3.9-.2.2-.4.4-.6.6-.7.6-1.2.9-1.6.9s-.8-.2-1-.6c-.2-.4-.3-1-.3-1.7s.3-2.8.9-5.4c.5-2.2.7-3.6.7-4.2s-.6-1.2-1.9-1.2-1.4.1-1.8.4c-.4.3-.7.8-.9,1.6-.4,1.5-.8,3.1-1.1,4.8-.2,1.4-.4,2.7-.4,3.7-.7.8-1.3,1.4-1.8,1.8-.7.6-1.4.9-2,.9s-.9-.3-1.3-.9c-.3-.6-.5-1.6-.6-3,2.2-3.8,4-7.6,5.4-11.3,1.3-3.7,2-6.8,2-9.6s-.3-3.4-1-4.3c-.7-1-1.6-1.4-2.6-1.4-2.1,0-3.8,1.7-5.1,5-1.3,3.4-2.2,7.4-2.6,12.1-1.8.2-3.4.8-4.9,1.9-1.5,1.1-2.6,2.4-3.4,4.1-.8,1.6-1.2,3.4-1.2,5.2-.5.5-.9,1-1.3,1.3-.7.6-1.2.9-1.7.9s-.5-.1-.7-.3c-.2-.2-.3-.5-.3-.9,0-1.1.3-3,.8-5.8.4-1.9.5-3.1.5-3.7,0-.9-.6-1.3-1.8-1.3s-1.1,0-1.6.1c-.1-.5-.3-.9-.5-1.1-.2-.2-.5-.3-1.1-.3-1.7,0-3.3.5-4.8,1.6-1.5,1.1-2.7,2.5-3.6,4.2-.2.5-.4.9-.6,1.4-.6.4-1.1.6-1.5.6-.6,0-.9-.4-.9-1.3s0-.9.3-1.8c.2-1.2.3-2,.3-2.3,0-1.6-.8-2.4-2.4-2.4s-1.7.3-2.6.8c-1,.6-1.9,1.5-2.9,2.8-1,1.3-1.9,3-2.7,5.1,0-1.1.2-2,.4-2.7.1-.7.3-1.6.6-2.6.4-1.4.5-2.2.5-2.6s0-.6-.3-.7c-.2-.1-.5-.2-1-.2-.9,0-1.6.2-2.1.5-.5.3-.9.8-1.1,1.6-.8,2.6-1.3,5.4-1.3,8.3-.7.8-1.3,1.5-1.8,1.9-.7.6-1.2.9-1.7.9s-.5-.1-.7-.3c-.2-.2-.3-.5-.3-.9,0-1.1.3-3,.8-5.8.4-1.9.5-3.1.5-3.7,0-.9-.6-1.3-1.8-1.3s-1.1,0-1.6.1c-.1-.5-.3-.9-.5-1.1-.2-.2-.5-.3-1.1-.3-1.7,0-3.3.5-4.8,1.6-1.5,1.1-2.7,2.5-3.6,4.2-.9,1.7-1.4,3.6-1.4,5.5s.5,3.2,1.4,4.3c.9,1.1,2.1,1.6,3.6,1.6s3.5-1,4.8-3.1c.3,1,.8,1.7,1.5,2.2.7.5,1.4.8,2.2.8s2.1-.4,3.3-1.3c.4-.3.9-.7,1.3-1.1,0,.4.2.7.3.9.4,1,1,1.5,2,1.5s1.3-.2,1.7-.6c.4-.4.7-1.2.9-2.3.4-1.5.8-2.9,1.4-4.2.6-1.3,1.2-2.4,1.8-3.2.6-.8,1.1-1.2,1.4-1.2s.4.2.4.6,0,.5,0,1c0,.4-.1.7-.1,1.1,0,1.1.3,2,1,2.7.7.7,1.7,1,2.9,1s1.5-.1,2.2-.4c0,1.7.5,3,1.3,4.1.9,1.1,2.1,1.6,3.6,1.6s3.5-1,4.8-3.1c.3,1,.8,1.7,1.5,2.2.7.5,1.4.8,2.2.8s2.1-.4,3.3-1.3c.5-.3.9-.7,1.3-1.2.2.3.3.5.5.8,1,1.1,2.2,1.7,3.7,1.7s1.9-.2,2.7-.7c.8-.4,1.7-1.3,2.7-2.6,1,2.2,2.4,3.3,4.2,3.3s2.4-.4,3.5-1.3c.6-.4,1.1-.8,1.6-1.3.1.3.3.6.5.9.7,1.1,1.9,1.7,3.5,1.7s4.3-1.5,6.8-4.4c.1-.1.2-.3.3-.5.1-.2.3-.3.4-.5.7-1,1.5-2.1,2.2-3.6.3.4.7.8,1.1,1.4.4.5.7,1.1,1,1.6.3.6.4,1.2.4,1.8-.2,0-.5,0-1-.1-.4,0-.8,0-1.1,0-.9,0-1.6.2-2,.7s-.7,1-.7,1.6.3,1.4,1,2c.7.6,1.6.9,2.9.9s2.5-.4,3.5-1.2c1.6,0,3-.3,4.1-.9.7-.3,1.3-.9,2.1-1.5.2.3.3.5.6.8,1.3,1.4,3.1,2.1,5.4,2.1s2.9-.3,4-.9c1.1-.6,2-1.4,2.7-2.4.4-.6.6-1.4.6-2.3s0-.9-.3-1.2ZM114.1,25.3c.3-2.7.7-4.8,1.2-6.5.5-1.6.9-2.5,1.4-2.5s.4.3.6.8c.2.5.2,1.2.2,2.2,0,3.6-1.4,8.4-4.1,14.3.1-2.9.4-5.7.7-8.3ZM57.7,40.2c-.2,1-.6,1.9-1.1,2.5-.5.6-1,1-1.5,1s-1-.2-1.3-.5c-.3-.4-.5-.9-.5-1.7,0-1.4.3-2.7.8-3.9.5-1.2,1.2-2.2,2.1-2.9.9-.7,1.8-1.1,2.8-1.2l-1.4,6.7ZM91.5,40.2c-.2,1-.6,1.9-1.1,2.5-.5.6-1,1-1.5,1s-1-.2-1.3-.5c-.3-.4-.5-.9-.5-1.7,0-1.4.3-2.7.8-3.9.5-1.2,1.2-2.2,2.1-2.9.9-.7,1.8-1.1,2.8-1.2l-1.4,6.7ZM107.6,43.1c-.5.4-.9.6-1.4.6-1.2,0-1.8-.9-1.8-2.7s.4-3.2,1.3-4.6c.9-1.4,2-2.3,3.3-2.7,0,1.3,0,2.3,0,2.9,0,1.6.1,3.1.4,4.4-.7,1-1.3,1.7-1.8,2.1ZM147.6,39.1c0-1.5.3-2.8.9-3.8.6-1,1.4-1.6,2.3-1.6s.8.1,1,.4c.3.3.4.7.4,1.1,0,.9-.4,1.7-1.2,2.4-.8.7-2,1.2-3.4,1.5h0Z"/>
    </g>
    <g>
      <path class="cls-2" d="M104.6-15.1c-.1,0-.2,0-.3,0-1-.3-2-.5-2.9-.7-7.1-1.4-14.5-1.4-21.6,0-.9.2-1.7.4-2.6.6-.7.2-1.4-.2-1.5-.9-.2-.7.2-1.4.9-1.5.9-.2,1.8-.4,2.7-.6,7.4-1.5,15.2-1.5,22.6,0,1,.2,2.1.5,3.1.7.7.2,1.1.9.9,1.5-.1.6-.7.9-1.2.9Z"/>
      <path class="cls-2" d="M103.1-10.5c0,0-.2,0-.3,0-.8-.2-1.6-.4-2.4-.6-6.4-1.3-13.2-1.3-19.7,0-.7.1-1.4.3-2,.5-.6.2-1.2-.2-1.4-.8-.2-.6.2-1.2.8-1.4.7-.2,1.4-.3,2.1-.5,6.7-1.4,13.8-1.4,20.6,0,.8.2,1.7.4,2.5.6.6.2,1,.8.8,1.4-.1.5-.6.9-1.1.9Z"/>
      <path class="cls-2" d="M101.5-5.8c0,0-.2,0-.3,0-.6-.2-1.2-.3-1.9-.4-5.8-1.2-11.9-1.2-17.7,0-.5.1-1,.2-1.5.3-.6.1-1.1-.2-1.3-.8-.1-.6.2-1.1.8-1.3.5-.1,1-.2,1.6-.3,6.1-1.2,12.5-1.2,18.5,0,.7.1,1.3.3,2,.4.6.1.9.7.8,1.3-.1.5-.5.8-1,.8Z"/>
      <path class="cls-2" d="M100-1.2c0,0-.1,0-.2,0-.4-.1-.9-.2-1.3-.3-5.1-1.1-10.6-1.1-15.7,0-.3,0-.6.1-.9.2-.5.1-1-.2-1.1-.7-.1-.5.2-1,.7-1.1.3,0,.7-.1,1-.2,5.4-1.1,11.1-1.1,16.5,0,.5,0,.9.2,1.4.3.5.1.8.6.7,1.1-.1.4-.5.7-.9.7Z"/>
      <path class="cls-2" d="M98.4,3.4c0,0-.1,0-.2,0-.3,0-.5-.1-.8-.2-4.5-.9-9.3-.9-13.8,0h-.4c-.4.2-.9,0-1-.5,0-.4.2-.9.6-1h.4c4.7-1.1,9.7-1.1,14.4,0,.3,0,.5.1.8.2.4.1.7.5.6,1,0,.4-.4.6-.8.6Z"/>
      <path class="cls-2" d="M96.8,8s0,0-.1,0h-.2c-3.8-.8-7.9-.8-11.7,0-.4,0-.8-.2-.8-.6,0-.4.2-.8.6-.8,4-.8,8.2-.8,12.3,0h.2c.4.1.6.5.5.9,0,.3-.4.6-.7.6Z"/>
      <path class="cls-2" d="M95.3,12.7s0,0-.1,0c-2.9-.6-6-.6-8.9,0-.3,0-.6-.2-.7-.5s.2-.6.5-.7c3.1-.5,6.3-.5,9.3,0,.3,0,.5.4.5.7,0,.3-.3.5-.6.5Z"/>
      <path class="cls-2" d="M93.7,17.3s0,0,0,0c-1.9-.3-3.9-.3-5.8,0-.3,0-.5-.1-.5-.4s.1-.5.4-.5c2-.3,4.1-.3,6.1,0,.3,0,.4.3.4.6,0,.2-.2.4-.5.4Z"/>
      <path class="cls-2" d="M92.1,22s0,0,0,0c-.9,0-1.8-.1-2.7,0-.2,0-.4-.1-.4-.3,0-.2.1-.4.3-.4,1,0,1.9,0,2.9,0,.2,0,.4.2.3.4,0,.2-.2.3-.4.3Z"/>
    </g>
    <g>
      <path class="cls-2" d="M112.7-15.7c6.8,2.9,12.8,7,18.1,12.2,5.2,5.2,9.3,11.3,12.2,18.1,2,4.7,3.3,9.7,4,14.8.8-.4,1.7-.7,2.6-.9-.7-5.1-2.1-10.1-4.1-14.9-3-7.1-7.3-13.5-12.8-18.9-5.5-5.5-11.8-9.8-18.9-12.8-.7-.3-1.5,0-1.7.7-.3.7,0,1.5.7,1.7Z"/>
      <path class="cls-2" d="M38.2,14.5c2.9-6.7,6.9-12.8,12.1-18,5.2-5.2,11.3-9.3,18.1-12.2.7-.3,1-1.1.7-1.7-.3-.7-1.1-1-1.7-.7-7.1,3-13.5,7.3-18.9,12.8C43,.1,38.7,6.5,35.7,13.6c-.2.6-.5,1.1-.7,1.7,1-.3,2.1-.6,3.2-.7Z"/>
      <path class="cls-2" d="M146.2,48.3c-.7,3.6-1.8,7.1-3.3,10.5-2.9,6.8-7,12.8-12.2,18.1s-11.3,9.3-18.1,12.2c-7,3-14.5,4.5-22.1,4.5s-15.1-1.5-22.1-4.5c-6.8-2.9-12.8-7-18.1-12.2-5.2-5.2-9.3-11.3-12.2-18.1-1-2.5-1.9-5-2.6-7.5-.8.7-1.6,1.1-2.4,1.4.7,2.4,1.5,4.8,2.5,7.2,3,7.1,7.3,13.5,12.8,18.9,5.5,5.5,11.8,9.8,18.9,12.8,7.3,3.1,15.1,4.7,23.2,4.7s15.8-1.6,23.2-4.7c7.1-3,13.5-7.3,18.9-12.8,5.5-5.5,9.8-11.8,12.8-18.9,1.5-3.5,2.6-7.1,3.4-10.8-.9-.1-1.8-.4-2.6-.8Z"/>
    </g>
    <path class="cls-2" d="M90.5-22.8c5.2,0,10.2.7,15,1.9-.7-7.6-7.1-13.5-14.8-13.5s-14.1,5.9-14.8,13.4c4.7-1.2,9.6-1.8,14.6-1.8Z"/>
  </g>
  <g>
    <path class="cls-2" d="M174.2,41.6c-.2-.4-.5-.5-.9-.5s-.9.2-1.2.7c-1.1,1.4-2,2.3-2.8,2.9-.8.6-1.8.9-3.1.9s-3-.7-3.7-2.1c3.6-.9,6.2-2.1,7.7-3.6,1.5-1.5,2.3-3.3,2.3-5.4s-.5-3.2-1.6-4.3c-1.1-1-2.5-1.6-4.2-1.6s-3.7.5-5.3,1.6c-1.6,1.1-2.8,2.5-3.7,4.3-.9,1.8-1.3,3.8-1.3,5.9s0,1.3.1,1.9c-1.3,1.3-2.5,2.2-3.5,2.6,0-.5,0-1,0-1.3,0-1.1-.3-2-.8-2.9-.5-.9-1.2-2-2.2-3.3-.7-.8-1.2-1.5-1.5-2.1-.3-.5-.5-1-.5-1.5,0-.8.3-1.7.8-2.8.2-.4.4-.8.5-1.2.1-.4.2-.7.2-.9,0-.3-.2-.6-.5-.7-.3-.2-.9-.2-1.8-.2-1.8,0-3,.7-3.6,2-.7,1.6-1.4,3.1-2.1,4.6-.7,1.5-1.3,2.7-1.8,3.5-.8,1.3-2,2.9-3.6,4.9-.3.3-.5.5-.8.8-.8.8-1.5,1.1-2.1,1.1s-1-.2-1.2-.7c-.2-.5-.4-1.2-.4-2.1s.4-3.5,1.1-6.8c.6-2.8.9-4.5.9-5.3s-.8-1.6-2.3-1.6-1.7.2-2.2.5c-.5.4-.8,1-1.1,2-.5,1.9-1,3.9-1.3,6-.3,1.8-.5,3.3-.5,4.6-.9,1-1.6,1.7-2.2,2.2-.9.7-1.7,1.1-2.5,1.1s-1.2-.4-1.6-1.1c-.4-.8-.7-2-.8-3.8,2.8-4.8,5-9.5,6.7-14,.1-.3.2-.6.3-.8-1.5-1-2.4-2-3-2.9-.8,3.1-2.2,6.6-4,10.6.2-3.6.5-7.1.9-10.4.4-3.3.9-6,1.5-8,.6-2.1,1.2-3.1,1.7-3.1s.5.3.7,1c.2.6.3,1.5.3,2.7s0,2.1-.3,3.2c1.4,0,2.7.4,3.8,1,.4-1.9.6-3.6.6-5.2,0-2.4-.4-4.2-1.3-5.4-.9-1.2-2-1.8-3.3-1.8-2.6,0-4.8,2.1-6.4,6.3-1.6,4.2-2.7,9.2-3.3,15.1-2.3.2-4.3,1-6.1,2.3-1.8,1.3-3.2,3-4.3,5.1-1,2-1.5,4.2-1.5,6.5-.6.7-1.1,1.2-1.6,1.6-.8.7-1.5,1.1-2.1,1.1s-.7-.1-.9-.4c-.2-.3-.3-.6-.3-1.1,0-1.4.3-3.8,1-7.3.5-2.4.7-3.9.7-4.6,0-1.1-.7-1.6-2.2-1.6s-1.4,0-2,.2c-.2-.7-.3-1.1-.6-1.4-.2-.3-.7-.4-1.3-.4-2.1,0-4.1.7-6,2-1.9,1.3-3.4,3.1-4.5,5.2-.3.6-.6,1.2-.8,1.8-.7.5-1.3.8-1.9.8-.8,0-1.1-.5-1.1-1.6s.1-1.1.4-2.3c.3-1.5.4-2.5.4-2.9,0-2-1-3-3-3s-2.1.3-3.3,1c-1.2.7-2.4,1.9-3.7,3.5-1.2,1.6-2.4,3.8-3.4,6.4.1-1.3.3-2.5.5-3.4.2-.9.4-2,.7-3.2.5-1.7.7-2.8.7-3.3s-.1-.7-.4-.9c-.2-.2-.7-.2-1.3-.2-1.1,0-2,.2-2.6.6-.6.4-1.1,1.1-1.3,1.9-1,3.3-1.6,6.8-1.7,10.4-.9,1-1.7,1.8-2.2,2.4-.8.7-1.5,1.1-2.1,1.1s-.7-.1-.9-.4c-.2-.3-.3-.6-.3-1.1,0-1.4.3-3.8,1-7.3.5-2.4.7-3.9.7-4.6,0-1.1-.7-1.6-2.2-1.6s-1.4,0-2,.2c-.2-.7-.3-1.1-.6-1.4-.2-.3-.7-.4-1.3-.4-2.1,0-4.1.7-6,2-1.9,1.3-3.4,3.1-4.5,5.2-1.1,2.2-1.7,4.5-1.7,6.9s.6,4,1.7,5.4c1.1,1.4,2.6,2.1,4.5,2.1s4.4-1.3,6-3.8c.4,1.2,1.1,2.1,1.9,2.8.8.7,1.8,1,2.8,1s2.7-.5,4.1-1.6c.5-.4,1.1-.9,1.6-1.4,0,.4.2.8.3,1.1.5,1.2,1.3,1.8,2.4,1.8s1.6-.3,2.1-.8c.4-.5.8-1.5,1.2-2.9.5-1.9,1-3.6,1.8-5.3.7-1.7,1.5-3,2.2-4,.7-1,1.3-1.5,1.8-1.5s.5.2.5.7,0,.6,0,1.2c0,.5-.1.9-.1,1.4,0,1.4.4,2.5,1.3,3.3.8.8,2.1,1.2,3.7,1.2s1.8-.2,2.7-.5c0,2.1.6,3.8,1.7,5.1,1.1,1.4,2.6,2.1,4.5,2.1s4.4-1.3,6-3.8c.4,1.2,1.1,2.1,1.9,2.8.8.7,1.8,1,2.8,1s2.7-.5,4.1-1.6c.6-.4,1.1-.9,1.7-1.4.2.3.4.7.7,1,1.2,1.4,2.7,2.1,4.6,2.1s2.4-.3,3.4-.8c1-.5,2.1-1.6,3.4-3.2,1.2,2.7,3,4.1,5.3,4.1s2.9-.5,4.4-1.6c.7-.5,1.3-1,2-1.6.2.4.4.8.6,1.2.9,1.4,2.3,2.1,4.3,2.1s5.4-1.8,8.4-5.5c.2-.2.3-.4.4-.6.2-.2.3-.4.5-.6.9-1.2,1.9-2.7,2.8-4.5.4.5.9,1.1,1.4,1.7.5.7.9,1.3,1.2,2,.3.7.5,1.4.5,2.2-.3,0-.7,0-1.2-.2-.5,0-1-.1-1.4-.1-1.1,0-2,.3-2.6.9-.6.6-.9,1.3-.9,2.1s.4,1.7,1.3,2.5c.8.7,2,1.1,3.6,1.1s3.1-.5,4.3-1.6c2,0,3.7-.4,5.1-1.1.8-.4,1.7-1,2.5-1.9.2.3.5.6.7.9,1.6,1.7,3.9,2.6,6.8,2.6s3.6-.4,4.9-1.1c1.4-.7,2.5-1.7,3.4-3.1.5-.8.8-1.7.8-2.8s-.1-1.1-.3-1.5ZM49.6,41.2c-.3,1.3-.7,2.4-1.3,3.1-.6.8-1.2,1.2-1.9,1.2s-1.2-.2-1.6-.7c-.4-.5-.6-1.2-.6-2.1,0-1.7.3-3.3,1-4.8.6-1.5,1.5-2.7,2.6-3.7,1.1-.9,2.3-1.4,3.5-1.4l-1.7,8.4ZM91.8,41.2c-.3,1.3-.7,2.4-1.3,3.1-.6.8-1.2,1.2-1.9,1.2s-1.2-.2-1.6-.7c-.4-.5-.6-1.2-.6-2.1,0-1.7.3-3.3,1-4.8.6-1.5,1.5-2.7,2.6-3.7,1.1-.9,2.3-1.4,3.5-1.4l-1.7,8.4ZM111.9,44.8c-.6.5-1.2.7-1.7.7-1.5,0-2.3-1.1-2.3-3.3s.6-4,1.7-5.7c1.1-1.7,2.5-2.8,4.2-3.4,0,1.6,0,2.8,0,3.6,0,2,.2,3.9.5,5.5-.9,1.3-1.6,2.2-2.2,2.6ZM161.7,39.8c0-1.9.4-3.4,1.2-4.7.8-1.3,1.7-2,2.9-2s1,.2,1.3.5c.3.3.5.8.5,1.4,0,1.1-.5,2.1-1.6,3-1,.9-2.4,1.5-4.2,1.9h0Z"/>
    <path class="cls-2" d="M41.6,22.7c0-2.2-.5-4.1-1.5-5.8-1-1.7-2.5-3.1-4.5-4.1-2-1-4.4-1.5-7.3-1.5-4,0-7.7,1.1-11.1,3.2-3.4,2.1-6,5.4-8,9.7-2,4.3-3,9.5-3,15.7s.5,6.1,1.4,8.3c.9,2.2,2.2,3.9,3.8,5,1.6,1.1,3.3,1.6,5.1,1.6,3.4,0,5.4-2.1,6.2-6.3l2-11c3.5-.2,6.6-1,9.1-2.4,2.6-1.4,4.5-3.1,5.8-5.3,1.3-2.2,2-4.5,2-7.1ZM25.5,32.8l1.5-8.8c0-.3,0-.7,0-1.2,0-.8-.2-1.4-.7-1.8-.4-.4-1.2-.6-2.2-.6s-1.6.2-2.3.7c-.7.4-1.1,1.2-1.3,2.2-.7,4-1.3,7.2-1.7,9.5-.4,0-1-.1-1.7-.2-.2,0-.4,0-.7,0-.7,0-1.2.2-1.6.6-.4.4-.6.9-.6,1.6s.1,1.2.4,1.6c.3.4.9.7,1.8.8-.2,0,.4,0,1.6.2l-1.5,8.6c-.4,2.1-1,3.1-1.7,3.1s-1.1-.4-1.7-1.2c-.6-.8-1.1-1.9-1.5-3.4-.4-1.5-.6-3.1-.6-5,0-4.5.6-8.5,1.9-12,1.3-3.5,3.1-6.3,5.4-8.2,2.3-2,5.1-3,8.2-3s4.8.6,6.1,1.9c1.3,1.3,2,2.9,2,4.9,0,5.7-3.1,8.9-9.3,9.7Z"/>
  </g>
  <path class="cls-1" d="M132.2,27.6s-.8-15.4,14.6-14.6c0,0,2.6,7.2-14.6,14.6Z"/>
  <path class="cls-1" d="M131,27.1s.4-8.4-8-8c0,0-1.4,3.9,8,8Z"/>
</svg>